<?xml version="1.0" encoding="iso-8859-1"?>
<!-- Uploaded to: SVG Repo, www.svgrepo.com, Generator: SVG Repo Mixer Tools -->
<svg version="1.1" id="Layer_1" xmlns="http://www.w3.org/2000/svg" xmlns:xlink="http://www.w3.org/1999/xlink" 
	 viewBox="0 0 512.054 512.054" xml:space="preserve">
<rect x="74.989" y="74.989" transform="matrix(0.7071 -0.7071 0.7071 0.7071 -106.0498 256.0268)" style="fill: #000000;" width="362.077" height="362.077"/>
<rect x="98.032" y="98.061" transform="matrix(0.7071 -0.7071 0.7071 0.7071 -106.0536 255.9949)" style="fill: #00d18c;" width="315.909" height="315.909"/>
<g>
	
		<rect x="134.349" y="242.384" transform="matrix(0.7071 -0.7071 0.7071 0.7071 -140.0142 185.2392)" style="fill:#FFFFFF;" width="38.496" height="38.496"/>
	
		<rect x="182.761" y="290.829" transform="matrix(0.7071 -0.7071 0.7071 0.7071 -160.0904 233.6613)" style="fill:#FFFFFF;" width="38.496" height="38.496"/>
	
		<rect x="231.194" y="339.229" transform="matrix(0.7071 -0.7071 0.7071 0.7071 -180.1288 282.0845)" style="fill:#FFFFFF;" width="38.496" height="38.496"/>
	
		<rect x="188.369" y="188.387" transform="matrix(0.7071 -0.7071 0.7071 0.7071 -86.0104 207.6219)" style="fill:#FFFFFF;" width="38.496" height="38.496"/>
	
		<rect x="236.739" y="236.773" transform="matrix(0.7071 -0.7071 0.7071 0.7071 -106.0576 255.9965)" style="fill:#FFFFFF;" width="38.496" height="38.496"/>
	
		<rect x="285.177" y="285.179" transform="matrix(0.7071 -0.7071 0.7071 0.7071 -126.0983 304.4253)" style="fill:#FFFFFF;" width="38.496" height="38.496"/>
	
		<rect x="242.341" y="134.414" transform="matrix(0.7071 -0.7071 0.7071 0.7071 -32.0379 229.9774)" style="fill:#FFFFFF;" width="38.496" height="38.496"/>
	
		<rect x="290.755" y="182.763" transform="matrix(0.7071 -0.7071 0.7071 0.7071 -52.0454 278.3731)" style="fill:#FFFFFF;" width="38.496" height="38.496"/>
	
		<rect x="339.194" y="231.153" transform="matrix(0.7071 -0.7071 0.7071 0.7071 -72.0748 326.7972)" style="fill:#FFFFFF;" width="38.496" height="38.496"/>
</g>
</svg>